<svg width="32" height="20" viewBox="0 0 32 20" fill="none" xmlns="http://www.w3.org/2000/svg">
  <path fill-rule="evenodd" clip-rule="evenodd"
        d="M2.21891 1.45831C3.30991 0.444024 4.72353 -0.0035661 5.93252 2.13868e-05C6.39976 0.00141004 6.85005 0.0325913 7.25856 0.0640054L7.41475 0.0761274C7.762 0.103206 8.07279 0.12744 8.33763 0.13038L8.34039 0.130411L9.20035 0.180099C13.5896 0.433917 16.0525 0.576339 18.8304 0.577356L18.8357 6.25065L19.6383 6.66601V0.573739C22.2101 0.550065 25.2104 0.40962 30.2712 0.130553L30.2759 0.130295L30.2806 0.130407C30.7435 0.141381 31.043 0.516821 31.2179 1.06452C31.394 1.6158 31.462 2.38738 31.4405 3.29698C31.3973 5.11961 30.9931 7.53981 30.3213 9.96682C29.6495 12.3939 28.7076 14.8373 27.5842 16.7039C27.0225 17.6372 26.4127 18.4308 25.765 19.006C25.1172 19.5811 24.4252 19.9432 23.7013 19.9996L23.6967 20H14.4846L14.478 19.9993C13.9181 19.9366 13.3245 19.5958 12.7525 19.1188C12.1777 18.6396 11.6117 18.0121 11.1058 17.3545C10.5996 16.6964 10.1511 16.005 9.81203 15.3958C9.50615 14.8462 9.28371 14.3535 9.19266 14.0095C7.9678 13.9747 5.89457 13.7833 4.07279 12.7668C2.19356 11.7181 0.590222 9.7951 0.451403 6.2996C0.362348 4.05719 1.12412 2.47611 2.21891 1.45831ZM3.56504 3.81325C3.03039 4.50535 2.88343 5.44392 2.99852 6.37806C3.21521 8.13686 3.90909 9.23783 4.88474 9.95075C5.81946 10.6338 7.0239 10.969 8.34835 11.1664C7.2991 8.1473 6.76645 6.09599 6.43684 2.69533C4.98646 2.67805 4.08378 3.14174 3.56504 3.81325ZM16.5851 5.56348L18.7618 6.66504L18.072 8.13639C17.972 8.13509 17.8701 8.15202 17.7706 8.18945C17.3235 8.35709 17.0914 8.87044 17.2524 9.33594C17.2853 9.43131 17.3321 9.51725 17.3895 9.59212L16.2016 12.126C16.1464 12.1266 16.0906 12.1328 16.0351 12.1449C15.9962 12.1533 15.9574 12.1647 15.9189 12.179C15.4717 12.3467 15.2396 12.86 15.4006 13.3255C15.5616 13.7913 16.0545 14.0329 16.5017 13.8652C16.9488 13.6976 17.1808 13.1842 17.0198 12.7187C16.975 12.5892 16.9045 12.4766 16.8164 12.3857L17.9706 9.92383C18.0374 9.93131 18.1057 9.93066 18.1741 9.92122C18.234 9.91276 18.2941 9.89779 18.3534 9.87565C18.4568 9.83691 18.5486 9.77962 18.6268 9.70866L18.7798 9.78418L18.792 9.79004L18.7963 9.79199L18.8169 9.80215L18.8169 9.80217C19.174 9.97843 19.4616 10.1205 19.6974 10.2572C20.111 10.4967 20.2367 10.6527 20.2751 10.804C20.3198 10.9792 20.2805 11.2627 20.0471 11.8464C19.9566 12.0729 19.8436 12.3298 19.7083 12.6256C19.5904 12.8838 19.4555 13.1719 19.3037 13.4961L19.2801 13.5465C19.1722 13.542 19.0617 13.5586 18.9538 13.599C18.5067 13.7666 18.2746 14.2799 18.4355 14.7454C18.4595 14.8151 18.4909 14.8796 18.5284 14.9385C18.5932 15.04 18.6763 15.125 18.7711 15.1901C18.8635 15.2536 18.9671 15.2982 19.0759 15.321C19.2247 15.3522 19.3833 15.3428 19.5366 15.2852C19.9837 15.1175 20.2157 14.6042 20.0547 14.1387C20.0374 14.0885 20.0162 14.041 19.9916 13.9964C19.9603 13.9391 19.9232 13.8864 19.8817 13.8389L19.8918 13.8171C20.2215 13.1133 20.4823 12.5563 20.6599 12.1123C20.7505 11.8854 20.8264 11.6725 20.8784 11.472C20.9585 11.1637 20.9821 10.8844 20.9167 10.627C20.8027 10.1784 20.4492 9.90169 20.0202 9.65299C19.7606 9.5026 19.4265 9.33789 19.0306 9.1429L18.9209 9.08887C18.9281 8.97038 18.9127 8.84798 18.8715 8.72917C18.8288 8.60547 18.7629 8.49772 18.6806 8.40918L19.357 6.96615L24.3281 9.48177L20.5659 17.5462L12.8228 13.6276L16.5851 5.56348Z"
        fill="white"/>
</svg>
