<svg width="60" height="38" viewBox="0 0 60 38" fill="none" xmlns="http://www.w3.org/2000/svg">
  <path fill-rule="evenodd" clip-rule="evenodd"
        d="M3.43466 2.77079C5.54628 0.843646 8.28232 -0.00677558 10.6223 4.06349e-05C11.5266 0.00267907 12.3981 0.0619235 13.1888 0.12161L13.4911 0.144642C14.1632 0.196091 14.7647 0.242136 15.2773 0.247723L15.2827 0.247781L16.9471 0.342189C25.4425 0.824445 30.2094 1.09505 35.586 1.09698L35.5963 11.8765L37.1497 12.6657V1.0901C42.1273 1.04512 47.9344 0.778276 57.7295 0.248052L57.7385 0.247561L57.7476 0.247772C58.6435 0.268624 59.2232 0.981959 59.5618 2.0226C59.9026 3.07002 60.0342 4.53602 59.9925 6.26427C59.909 9.72726 59.1266 14.3256 57.8264 18.937C56.5262 23.5484 54.7031 28.1909 52.5287 31.7375C51.4415 33.5108 50.2613 35.0186 49.0077 36.1113C47.754 37.2041 46.4147 37.8921 45.0135 37.9993L45.0045 38H27.1748L27.162 37.9986C26.0783 37.8796 24.9294 37.232 23.8222 36.3257C22.7098 35.4153 21.6143 34.223 20.6351 32.9735C19.6553 31.7232 18.7872 30.4095 18.131 29.252C17.539 28.2077 17.1085 27.2716 16.9322 26.6181C14.5615 26.5519 10.5488 26.1884 7.02282 24.2569C3.38559 22.2644 0.282361 18.6107 0.0136779 11.9692C-0.158685 7.70866 1.31572 4.70462 3.43466 2.77079ZM6.04007 7.24518C5.00527 8.56017 4.72084 10.3435 4.94359 12.1183C5.36299 15.46 6.70598 17.5519 8.59433 18.9064C10.4035 20.2042 12.7346 20.841 15.2981 21.2161C13.2673 15.4799 12.2363 11.5824 11.5984 5.12113C8.79122 5.08829 7.04409 5.96931 6.04007 7.24518ZM31.2402 10.5709L35.4532 12.6639L34.118 15.4594C33.9246 15.457 33.7274 15.4891 33.5349 15.5602C32.6694 15.8788 32.2202 16.8541 32.5317 17.7386C32.5955 17.9198 32.6862 18.0831 32.7972 18.2253L30.498 23.0396C30.3912 23.0409 30.2832 23.0526 30.1758 23.0755C30.1004 23.0916 30.0253 23.1132 29.9509 23.1404C29.0854 23.459 28.6362 24.4343 28.9478 25.3188C29.2593 26.2038 30.2133 26.6627 31.0788 26.3442C31.9443 26.0257 32.3932 25.0503 32.0816 24.1659C31.9949 23.9197 31.8585 23.7057 31.6879 23.5332L33.9218 18.8556C34.0512 18.8698 34.1833 18.8685 34.3158 18.8506C34.4318 18.8345 34.548 18.8061 34.6628 18.764C34.863 18.6904 35.0406 18.5816 35.192 18.4467L35.488 18.5902L35.5118 18.6014L35.52 18.6051L35.5598 18.6243C36.2509 18.9593 36.8077 19.2291 37.2641 19.4889C38.0646 19.9441 38.3078 20.2403 38.3823 20.5279C38.4686 20.8607 38.3926 21.3994 37.941 22.5083C37.7658 22.9388 37.547 23.4268 37.2852 23.989C37.0569 24.4795 36.796 25.0268 36.5021 25.6429L36.4563 25.7387C36.2476 25.7301 36.0336 25.7616 35.8249 25.8383C34.9594 26.1568 34.5102 27.1322 34.8218 28.0166C34.8682 28.149 34.9289 28.2714 35.0015 28.3834C35.127 28.5763 35.2878 28.7378 35.4712 28.8615C35.65 28.9821 35.8505 29.0668 36.0611 29.1101C36.3492 29.1695 36.6562 29.1515 36.9528 29.0421C37.8183 28.7235 38.2672 27.7482 37.9556 26.8638C37.9221 26.7685 37.8812 26.6782 37.8336 26.5935C37.7728 26.4846 37.7011 26.3844 37.6208 26.2941L37.6404 26.2527C38.2785 24.9155 38.7833 23.8573 39.1269 23.0137C39.3024 22.5826 39.4492 22.1781 39.5499 21.7971C39.7049 21.2114 39.7507 20.6807 39.624 20.1915C39.4034 19.3392 38.7192 18.8135 37.8888 18.341C37.3865 18.0552 36.7398 17.7423 35.9735 17.3718L35.7611 17.2691C35.7751 17.044 35.7452 16.8114 35.6656 16.5857C35.5829 16.3507 35.4553 16.1459 35.296 15.9777L36.6052 13.236L46.2268 18.0156L38.945 33.3381L23.9584 25.8927L31.2402 10.5709Z"
        fill="#73BD28"/>
</svg>
