<svg width="50" height="50" viewBox="0 0 50 50" fill="none" xmlns="http://www.w3.org/2000/svg">
  <path
    d="M25 0C11.1958 0 0 11.4767 0 25.632C0 36.9571 7.1625 46.5648 17.0979 49.9546C18.3458 50.1917 18.75 49.3971 18.75 48.7222V43.9504C11.7958 45.5011 10.3479 40.9258 10.3479 40.9258C9.21042 37.9631 7.57083 37.175 7.57083 37.175C5.30208 35.5836 7.74375 35.6178 7.74375 35.6178C10.2542 35.7972 11.575 38.26 11.575 38.26C13.8042 42.1775 17.4229 41.0454 18.85 40.3896C19.0729 38.7342 19.7208 37.6022 20.4375 36.9635C14.8854 36.312 9.04792 34.1141 9.04792 24.2949C9.04792 21.4946 10.025 19.2091 11.6229 17.4148C11.3646 16.7676 10.5083 14.1595 11.8667 10.6309C11.8667 10.6309 13.9667 9.94308 18.7437 13.2582C20.7375 12.69 22.875 12.4059 25 12.3952C27.125 12.4059 29.2646 12.69 31.2625 13.2582C36.0354 9.94308 38.1312 10.6309 38.1312 10.6309C39.4917 14.1617 38.6354 16.7697 38.3771 17.4148C39.9812 19.2091 40.95 21.4967 40.95 24.2949C40.95 34.1397 35.1021 36.3077 29.5354 36.9421C30.4312 37.7367 31.25 39.296 31.25 41.6883V48.7222C31.25 49.4036 31.65 50.2046 32.9187 49.9525C42.8458 46.5584 50 36.9528 50 25.632C50 11.4767 38.8063 0 25 0Z"
    fill="black"/>
</svg>
