<svg width="28" height="28" viewBox="0 0 28 28" fill="none" xmlns="http://www.w3.org/2000/svg">
  <path
    d="M14 0C6.26967 0 0 6.42697 0 14.3539C0 20.696 4.011 26.0763 9.57483 27.9746C10.2737 28.1074 10.5 27.6624 10.5 27.2844V24.6122C6.60567 25.4806 5.79483 22.9184 5.79483 22.9184C5.15783 21.2594 4.23967 20.818 4.23967 20.818C2.96917 19.9268 4.3365 19.946 4.3365 19.946C5.74233 20.0465 6.482 21.4256 6.482 21.4256C7.73033 23.6194 9.75683 22.9854 10.556 22.6182C10.6808 21.6912 11.0437 21.0572 11.445 20.6996C8.33583 20.3347 5.06683 19.1039 5.06683 13.6051C5.06683 12.037 5.614 10.7571 6.50883 9.7523C6.36417 9.38986 5.88467 7.92935 6.64533 5.95329C6.64533 5.95329 7.82133 5.56813 10.4965 7.42457C11.613 7.10639 12.81 6.9473 14 6.94132C15.19 6.9473 16.3882 7.10639 17.507 7.42457C20.1798 5.56813 21.3535 5.95329 21.3535 5.95329C22.1153 7.93054 21.6358 9.39106 21.4912 9.7523C22.3895 10.7571 22.932 12.0382 22.932 13.6051C22.932 19.1182 19.6572 20.3323 16.5398 20.6876C17.0415 21.1326 17.5 22.0058 17.5 23.3455V27.2844C17.5 27.666 17.724 28.1146 18.4345 27.9734C23.9937 26.0727 28 20.6936 28 14.3539C28 6.42697 21.7315 0 14 0Z"
    fill="white"/>
</svg>
