<svg width="54" height="50" viewBox="0 0 54 50" fill="none" xmlns="http://www.w3.org/2000/svg">
  <path d="M53.8986 28.5902L50.8732 19.2459L44.8884 0.710382C44.5814 -0.236794 43.2439 -0.236794 42.926 0.710382L36.9412 19.2341H17.055L11.0701 0.710382C10.7631 -0.236794 9.42561 -0.236794 9.10772 0.710382L3.13283 19.2341L0.107454 28.5893C-0.166184 29.4381 0.130032 30.3743 0.853412 30.9035L26.999 50L53.1445 30.9035C53.8679 30.3743 54.1749 29.4381 53.9004 28.5893" fill="#FC6D26"/>
  <path d="M27.0017 49.9878L36.9448 19.2346H17.0586L27.0017 49.9878Z" fill="#E24329"/>
  <path d="M26.997 49.9878L17.0539 19.2346H3.13086L26.997 49.9878Z" fill="#FC6D26"/>
  <path d="M3.12599 19.2432L0.100618 28.5874C-0.17302 29.4353 0.123196 30.3725 0.846576 30.9016L26.9921 49.9982L3.12689 19.2432" fill="#FCA326"/>
  <path d="M3.13086 19.2445H17.0647L11.0682 0.720831C10.7611 -0.227256 9.42363 -0.227256 9.10574 0.720831L3.13086 19.2445Z" fill="#E24329"/>
  <path d="M27.0029 49.9878L36.946 19.2346H50.8799L27.0029 49.9878Z" fill="#FC6D26"/>
  <path d="M50.871 19.2432L53.8964 28.5874C54.17 29.4353 53.8747 30.3725 53.1504 30.9016L27.0049 49.9872L50.8701 19.2432" fill="#FCA326"/>
  <path d="M50.8793 19.2421H36.9463L42.9311 0.71839C43.2382 -0.229698 44.5757 -0.229698 44.8935 0.71839L50.8793 19.2421Z" fill="#E24329"/>
</svg>
