<svg width="28" height="26" viewBox="0 0 28 26" fill="none" xmlns="http://www.w3.org/2000/svg">
  <path d="M13.9998 25.9943L8.84381 9.99976H1.62402L13.9998 25.9943Z" fill="white"/>
  <path d="M26.3787 10.0049L27.9475 14.8648C28.0894 15.3058 27.9363 15.7932 27.5607 16.0684L14.0029 25.9947L26.3782 10.0049" fill="white"/>
  <path opacity="0.85" d="M14.0017 25.9943L19.1577 9.99976H8.8457L14.0017 25.9943Z" fill="white"/>
  <path d="M1.62098 10.0044L0.0521757 14.8643C-0.0897193 15.3053 0.0638832 15.7927 0.438992 16.0679L13.9968 25.9999L1.62145 10.0044" fill="white"/>
  <path opacity="0.85" d="M1.62402 10.0051H8.84943L5.73992 0.371042C5.58069 -0.122053 4.88714 -0.122053 4.7223 0.371042L1.62402 10.0051Z" fill="white"/>
  <path d="M14.002 25.9943L19.1579 9.99976H26.3833L14.002 25.9943Z" fill="white"/>
  <path opacity="0.85" d="M26.3831 10.0039H19.1582L22.2616 0.369822C22.4209 -0.123274 23.1144 -0.123274 23.2793 0.369822L26.3831 10.0039Z" fill="white"/>
</svg>
