<svg width="202" height="118" viewBox="0 0 202 118" fill="none" xmlns="http://www.w3.org/2000/svg">
  <path
    d="M2.29545 118V106.036L12.8545 103.455C13.0076 97.8251 13.0841 91.8821 13.0841 85.6263C13.0841 79.2141 13.0841 73.5839 13.0841 68.7356V54.1909C13.0841 49.8117 13.0841 46.2928 13.0841 43.6342C13.0841 40.9756 13.0076 38.4732 12.8545 36.1272C12.8545 33.7813 12.7015 31.0443 12.3955 27.9165L0 25.8052V16.1869L50.7295 0L54.8614 2.58052L56.0091 18.7674C61.3651 12.1988 66.7213 7.42875 72.0773 4.45726C77.4333 1.48575 83.4781 0 90.2114 0C106.433 0 116.992 6.80318 121.889 20.4095C128.316 12.277 134.208 6.88137 139.564 4.22267C144.92 1.40756 150.735 0 157.009 0C169.558 0 178.51 3.51889 183.866 10.5567C189.375 17.5944 192.13 27.9946 192.13 41.7575V68.7356C192.13 73.7402 192.13 79.4487 192.13 85.8608C192.13 92.2729 192.206 98.2942 192.359 103.924L202 106.036V118H140.482V106.036L149.205 103.69C149.358 98.0596 149.434 92.0384 149.434 85.6263C149.434 79.2141 149.434 73.5839 149.434 68.7356V45.0417C149.434 37.0656 148.669 31.7481 147.139 29.0895C145.608 26.4308 142.854 25.1014 138.875 25.1014C133.978 25.1014 129.081 26.9781 124.184 30.7316C124.337 31.9827 124.414 33.3121 124.414 34.7197C124.567 36.1272 124.643 37.6129 124.643 39.1769V68.7356C124.643 73.7402 124.643 79.4487 124.643 85.8608C124.643 92.2729 124.72 98.3724 124.873 104.159L133.595 106.036V118H71.8477V106.036L81.7182 103.455C81.8713 97.9815 81.9477 92.0384 81.9477 85.6263C81.9477 79.2141 81.9477 73.5839 81.9477 68.7356V45.0417C81.9477 37.8475 81.1827 32.7648 79.6523 29.7932C78.275 26.6654 75.3673 25.1014 70.9296 25.1014C68.6341 25.1014 66.2622 25.6487 63.8136 26.7435C61.3651 27.8384 58.9932 29.2459 56.6977 30.9662V68.7356C56.6977 73.5839 56.6977 79.2923 56.6977 85.8608C56.6977 92.2729 56.7742 98.3724 56.9273 104.159L65.65 106.036V118H2.29545Z"
    fill="white"/>
</svg>
