<svg width="90" height="52" viewBox="0 0 90 52" fill="none" xmlns="http://www.w3.org/2000/svg">
<path d="M0 37.1428L14.8771 51.9999H0V37.1428ZM0 33.4284L18.5964 51.9999H33.4734L0 18.5714V33.4284ZM0 14.8571L37.1927 51.9999H52.0699L0 0V14.8571ZM18.5964 14.8571L55.7892 51.9999V37.1428L18.5964 0V14.8571ZM37.1927 0V14.8571L55.7892 33.4284V18.5714L37.1927 0Z" fill="white"/>
<path fill-rule="evenodd" clip-rule="evenodd" d="M79.1043 41.8557C81.7971 44.5448 85.451 46.0573 89.2625 46.0573V52H58.4192V21.1982L79.1043 41.8557ZM70.321 43.0857C70.321 44.7268 68.9889 46.057 67.3457 46.057C65.7024 46.057 64.3701 44.7268 64.3701 43.0857C64.3701 41.4447 65.7024 40.1143 67.3457 40.1143C68.9889 40.1143 70.321 41.4447 70.321 43.0857Z" fill="white"/>
<path d="M0 51.9997H14.8771L0 37.1426V51.9997Z" fill="white"/>
<path d="M18.5964 18.5714L0 0V14.8571L18.5964 33.4284V18.5714Z" fill="white"/>
<path d="M0 18.5714V33.4286L18.5964 51.9999V37.1428L0 18.5714Z" fill="white"/>
<path d="M37.1927 18.5714L18.5964 0V14.8571L37.1927 33.4284V18.5714Z" fill="white"/>
<path d="M18.5964 51.9997H33.4734L18.5964 37.1426V51.9997Z" fill="white"/>
<path d="M18.5964 18.5714V33.4286L37.1927 51.9999V37.1428L18.5964 18.5714Z" fill="white"/>
</svg>
