<svg width="34" height="34" viewBox="0 0 34 34" fill="none" xmlns="http://www.w3.org/2000/svg">
  <path
    d="M29.2981 11.2073C28.4039 9.26667 27.0998 7.62983 25.3778 6.2572C25.4232 7.18871 25.5268 9.18233 25.5268 9.18233C25.5268 9.18233 25.6341 9.3234 25.6758 9.3846C27.4158 11.8186 28.0522 14.5168 27.4724 17.4457C26.3085 23.3243 20.5893 26.9115 14.7934 25.4441C9.70537 24.1573 6.30741 18.9459 7.26942 13.7794C8.02874 9.70033 10.4356 6.9827 14.3433 5.60262L14.4849 5.54962L14.5959 5.46677C15.0698 4.79502 15.5318 4.11729 16.0251 3.4C10.1025 3.69408 4.14642 8.45385 3.4631 15.6939C3.13992 19.0367 4.06405 22.381 6.05724 25.0817C8.05043 27.7823 10.9715 29.648 14.2569 30.3188C21.2793 31.7474 27.968 27.5974 29.9844 20.956C30.9948 17.6353 30.7579 14.366 29.2981 11.2073ZM12.5847 15.5886C12.8828 18.4078 15.3202 20.3283 18.1414 20.0163C20.9135 19.7095 22.9403 16.9926 22.4157 14.2451C22.0066 12.1022 21.5543 9.96754 21.1206 7.82613C20.941 6.94165 20.7592 6.05717 20.5692 5.12418C20.4947 5.1906 20.4589 5.21822 20.4276 5.24957L17.5781 8.05154C16.4231 9.18755 15.2663 10.3241 14.1078 11.4611C12.9446 12.5941 12.4178 13.9809 12.5847 15.5886Z"
    fill="url(#paint0_linear)"/>
  <defs>
    <linearGradient id="paint0_linear" x1="30.5999" y1="3.4" x2="3.3999" y2="30.6" gradientUnits="userSpaceOnUse">
      <stop stop-color="#FF7F66"/>
      <stop offset="1" stop-color="#661AFF"/>
    </linearGradient>
  </defs>
</svg>
