<svg width="223" height="223" viewBox="0 0 223 223" fill="none" xmlns="http://www.w3.org/2000/svg">
  <circle cx="111.5" cy="111.5" r="111.5" fill="black"/>
  <path
    d="M47.4773 149V141.294L54.2727 139.632C54.3712 136.006 54.4205 132.178 54.4205 128.149C54.4205 124.019 54.4205 120.393 54.4205 117.27V107.903C54.4205 105.082 54.4205 102.816 54.4205 101.103C54.4205 99.391 54.3712 97.7793 54.2727 96.2684C54.2727 94.7575 54.1742 92.9946 53.9773 90.9801L46 89.6203V83.4255L78.6477 73L81.3068 74.662L82.0455 85.0875C85.4924 80.8569 88.9394 77.7846 92.3864 75.8708C95.8333 73.9569 99.7235 73 104.057 73C114.496 73 121.292 77.3817 124.443 86.1451C128.58 80.9072 132.371 77.4321 135.818 75.7197C139.265 73.9066 143.008 73 147.045 73C155.121 73 160.883 75.2664 164.33 79.7992C167.875 84.332 169.648 91.0304 169.648 99.8946V117.27C169.648 120.494 169.648 124.17 169.648 128.3C169.648 132.43 169.697 136.308 169.795 139.934L176 141.294V149H136.409V141.294L142.023 139.783C142.121 136.157 142.17 132.279 142.17 128.149C142.17 124.019 142.17 120.393 142.17 117.27V102.01C142.17 96.8728 141.678 93.4479 140.693 91.7356C139.708 90.0232 137.936 89.167 135.375 89.167C132.224 89.167 129.072 90.3757 125.92 92.7932C126.019 93.599 126.068 94.4553 126.068 95.3618C126.167 96.2684 126.216 97.2253 126.216 98.2326V117.27C126.216 120.494 126.216 124.17 126.216 128.3C126.216 132.43 126.265 136.358 126.364 140.085L131.977 141.294V149H92.2386V141.294L98.5909 139.632C98.6894 136.107 98.7386 132.279 98.7386 128.149C98.7386 124.019 98.7386 120.393 98.7386 117.27V102.01C98.7386 97.3764 98.2463 94.1028 97.2614 92.1889C96.375 90.1743 94.5037 89.167 91.6477 89.167C90.1705 89.167 88.644 89.5195 87.0682 90.2247C85.4924 90.9298 83.9659 91.8364 82.4886 92.9443V117.27C82.4886 120.393 82.4886 124.07 82.4886 128.3C82.4886 132.43 82.5378 136.358 82.6364 140.085L88.25 141.294V149H47.4773Z"
    fill="white"/>
</svg>
