<?xml version="1.0" standalone="no"?>
<!DOCTYPE svg PUBLIC "-//W3C//DTD SVG 20010904//EN"
 "http://www.w3.org/TR/2001/REC-SVG-20010904/DTD/svg10.dtd">
<svg version="1.0" xmlns="http://www.w3.org/2000/svg"
 width="346.000000pt" height="346.000000pt" viewBox="0 0 346.000000 346.000000"
 preserveAspectRatio="xMidYMid meet">
<metadata>
Created by potrace 1.11, written by Peter Selinger 2001-2013
</metadata>
<g transform="translate(0.000000,346.000000) scale(0.100000,-0.100000)"
fill="#000000" stroke="none">
<path d="M1499 3445 c-856 -117 -1500 -855 -1499 -1718 2 -952 781 -1728 1733
-1727 952 2 1728 781 1727 1733 -2 956 -785 1732 -1740 1726 -69 -1 -168 -7
-221 -14z m-235 -1174 c3 -20 6 -55 6 -78 0 -24 2 -43 4 -43 2 0 30 25 62 56
69 68 154 110 239 119 67 7 159 -7 210 -32 43 -22 104 -82 126 -126 l20 -39
65 67 c107 109 230 151 369 126 84 -15 144 -49 186 -104 70 -94 72 -107 76
-539 5 -428 -2 -388 71 -403 32 -7 32 -7 32 -66 l0 -59 -305 0 -305 0 0 60 0
59 39 11 39 10 7 127 c12 199 1 560 -18 604 -21 52 -67 66 -139 45 -102 -30
-94 8 -88 -412 l5 -369 43 -9 42 -9 0 -58 0 -59 -310 0 -310 0 0 59 0 59 50
12 50 12 0 335 c0 348 -5 396 -42 430 -30 27 -105 22 -161 -11 l-47 -27 2
-367 3 -366 43 -9 42 -8 0 -60 0 -59 -315 0 -315 0 0 59 0 59 50 12 50 12 0
378 0 378 -37 6 c-98 17 -93 13 -93 62 0 33 4 46 18 52 9 3 123 41 252 83 261
84 273 85 284 20z"/>
</g>
</svg>
